<?xml version="1.0" encoding="UTF-8"?>
<svg id="Camada_2" xmlns="http://www.w3.org/2000/svg" viewBox="0 0 787.42 608.84">
  <defs>
    <style>
      .cls-1 {
        fill: #f7a56d;
      }

      .cls-2 {
        stroke-width: 27px;
      }

      .cls-2, .cls-3 {
        fill: none;
        stroke: #0c113a;
        stroke-linejoin: round;
      }

      .cls-3 {
        stroke-width: 41px;
      }

      .cls-4 {
        fill: #f3b500;
      }

      .cls-5 {
        fill: #fff;
      }

      .cls-6 {
        fill: #ffd9b2;
      }

      .cls-7 {
        fill: #e25d77;
      }

      .cls-8 {
        fill: #002235;
      }

      .cls-9 {
        fill: #0c113a;
      }

      .cls-10 {
        fill: #ad4151;
      }

      .cls-11 {
        fill: #c38b01;
      }
    </style>
  </defs>
  <g id="Layer_1">
    <g>
      <g>
        <path class="cls-9" d="M563.88,180.15c-5.89-28.54-30.54-48.97-59.08-48.97h-213.27c-28.54,0-53.18,20.43-59.08,48.97l-58,280.89c-5.92,28.65,8.69,57.61,34.95,69.31l164.63,73.34c15.38,6.85,32.87,6.85,48.25,0l164.63-73.34c26.26-11.7,40.87-40.66,34.95-69.31l-58-280.89Z"/>
        <path class="cls-4" d="M539.73,186.86c-3.79-18.8-19.44-32.22-37.56-32.22h-208.01c-18.11,0-33.76,13.43-37.56,32.22l-54.79,271.44c-3.86,19.11,5.61,38.43,22.56,46.07l158.79,71.49c9.59,4.32,20.41,4.32,30,0l158.79-71.49c16.95-7.63,26.41-26.96,22.56-46.07l-54.79-271.44Z"/>
      </g>
      <g>
        <path class="cls-8" d="M627.66,291.92c-1.77-7.22-7.14-12.59-12.34-17.55-6.7-7.22-45.43-32.76-67.78-57.5-2.96-3.27-5.32-6.99-8.62-9.94-2.76-2.44-3.97-5.52-5.53-8.76-2.24-5.13-3.84-10.96-3.14-16.59,2.23-17.48,9.14-32.15,16.38-47.92,5.76-13.21,11.65-27.6,13.44-41.95.62-4.55.44-9,.35-13.57.05-12.07-5.68-24.02-14.42-32.21-3.84-3.56-7.44-7.17-11.89-9.99-10.02-6.58-22.9-10.24-34.78-7.51-5.69,1.22-10.64,4.03-14.98,7.85-4.38-.86-7.83-.75-12.04.77-6.78-13.87-19.88-24.69-33.79-30.96-15.51-7.01-33.3-8.38-49.23-1.88-17.89-6.27-38.24-1.57-52.73,10.25-5.15,4.04-8.83,8.99-12.81,14.1-8.38,11.19-11.37,25.78-9.46,39.51,1.48,9.52,5.11,18.81,12.52,25.28-3.15,7.17-4.88,14.79-4.53,22.66.18,10.72,4,19.77,5.18,30.3.71,5.21.87,10.98,3.2,15.73,1.08,2.36,2.72,4.3,4.53,6.12-6.89-4.58-14.04-8.16-22.44-8.67-8.63-.58-16.86,2.02-24.16,6.49-4.28-1.51-8.63-2.67-12.76-4.59-6.66-2.83-12.1-6.59-19.42-7.61-6.91-.86-14.2-.03-21.14.46,1.72-5.96,1.53-11.9,1.85-18.03.21-6.89-.33-13.42,1.71-20.12.91-3.19,2.75-5.52,4.46-8.28.85,3.06,1.59,5.87,4.47,7.66,4.35,2.67,9.79,1.56,14.03-.77,6.1-3.51,10.77-8.91,16.97-12.39,3.82-2.17,7.06-4.75,8.33-9.14,1.54-5.51,1.22-12.99-3.54-16.92,2.6-3.58,5.17-7.91,5.69-12.39.21-2.74-1.16-5.24-2.76-7.36-3.26-4.28-6.96-8.18-11.01-11.72-3.26-2.86-6.19-6.11-10.63-7-4.76-1.03-10.35,1.08-14.77,2.78-14.35,5.69-25.55,14.68-37.82,23.76-5.19,4.06-10.23,7.51-13.39,13.49-3.69,7.12-6.72,14.59-10.32,21.78-4.6,9.33-10.85,17.94-15.6,27.18-4.76,9.19-6.64,20.33-8.52,30.46-1.31,8.63-3.1,18.12-.17,26.55,2.21,6.96,7.29,12.04,12.29,17.12,3.52,3.63,7.6,6.43,11.75,9.25,7.91,5.97,15.63,11.55,24.75,15.61,10.8,4.71,21.96,8.51,33.39,11.35,8.16,2.3,17.11,3.76,24.02,8.87-3.11,9.35-2.65,19.66.26,29,2.48,8,7.81,15.01,14.11,20.42,2.84,2.46,5.69,4.21,9.23,5.53-1.61,10.1-1.65,20.34.43,30.37,3.26,15.42,9.65,30.13,13.27,45.39-3.78,6.04-6.28,13.03-9.13,19.56-2.31,5.45-4.49,10.95-6.5,16.5,47.41,11.53,97.71,1.42,145.48,1.42,14.77-.57,29.54-2.43,44.31-5.03-1.79-3-3.69-5.95-5.69-8.83,5.8-.45,10.93-2.6,16.37-4.46,5.95-2.08,12.79-2.21,18.26-5.21,3.46-1.88,5.9-4.84,7.78-8.23,10.28-1.51,19.85-5.16,29.18-9.61,14.85-6.79,29.05-14.67,42.69-23.63,10.37-6.59,20.94-14.61,28.6-24.29,7.27-9.34,10.3-21.25,8.55-32.95ZM353.11,176.19c-3.68-.26-6.79-1.89-10.07-3.41,7.87,2.29,16.75,1.54,24.44-1.13-4.15,3.13-9.17,4.83-14.37,4.53ZM453.72,168.49c-3.65-6.8-4.9-15.64-2.01-22.93,3.14-8.07,10.1-14.54,14.84-22.1,6.43-9.24,11.02-19.63,13.49-30.62,1.81,11.79-1.89,22.09-4.51,33.38-2.6,11.3-5.38,23.56-4.78,35.18.46,9.29,3.82,18.03,9.91,25.08-4.21-1.35-8.87-2.37-12.68-4.53-5.7-3.2-11.11-7.67-14.27-13.48ZM521.49,318.84c-4.31,3.84-9.14,7.01-14.57,9.04-3.84,1.4-7.89.91-11.52-.84-8.49-3.79-15.03-9.77-24.85-9.79,8.12-9.47,17.3-20.96,18.55-33.79,10.19,7.95,20.52,15.22,32.14,20.95,3.36,1.67,6.9,2.87,10.49,3.94-2.88,3.89-6.64,7.27-10.24,10.49Z"/>
        <g>
          <path class="cls-6" d="M267.08,86.36c-3.46,5.74-7.88,8.9-14.21,10.97-.13,3.28-1.14,5.92,1.74,8.34,1.67-2,3.15-3.95,5.21-5.57,4.03-3.17,9.29-5,13.37-7.73,1.79-1.19,3.19-2.81,3.62-4.96.38-1.96-.38-3.71-.9-5.57-2.81,1.95-5.58,3.41-8.84,4.52Z"/>
          <path class="cls-6" d="M614.93,297.25c-2.01-8.01-7.33-13.19-13.37-18.38-17.08-15.11-35.72-25.1-51.68-41.71-1.35-1.46-2.59-2.99-4.11-4.3-8.6,3.24-16.12,10.13-22.22,16.83-6.56,7.49-13.36,16.88-15.13,26.86,10.18,5.85,19.13,13.37,29.51,18.84,3.63,1.99,7.57,3.21,11.17,5.26,3.68-2.85,7.57-6.14,11.91-7.89,5.01-1.77,10.27-2.73,15.59-2.25-9.53,2.73-16.4,8.76-23.26,15.59-11.6,11.32-23.05,24.3-36.5,33.42-3.85,2.12-8.6,5.63-13.15,5.16-3.37-.19-6.75-2.05-9.55-3.82-5.47-3.73-11.01-8.49-16.95-11.51-2.45-1.2-5.16-1.88-7.65-.33-2.49,1.58-4.74,3.52-7.21,5.16,2.54.77,5.11,1.27,7.73,1.71.77.06,1.42.42,1.95,1.07-6.59,2.72-12.84,1.3-19.61,1.9-4.74.63-6.11,6.24-4.06,9.97,2.07,4.31,5.69,6.22,9.41,8.85-3.73.42-7-.62-10.39-1.95.32,6.54,3.15,12.13,8.45,16.01.63.68,1.24,1.37,1.85,2.08-1.23-.18-2.46-.38-3.67-.65-1.11-.29-2.2-.62-3.3-.93l.11.19c2.04,3.58,4.59,6.82,7.91,9.29,4.58,3.33,10.82,4.47,16.38,4.18,7.57-.47,13.95-3.2,20.87-5.9,4.35-1.77,9.11-1.05,13.04-3.36-3.02-.3-5.98-.57-8.86-1.63,10.72-1.43,20.41-5.27,30.33-9.35,20.88-8.8,41.39-19.47,59.89-32.58,5.8-4.12,11.51-8.73,16.32-13.97,3.02-3.29,4.78-7.11,6.63-11.1,1.59-3.29,1.76-7.17,1.61-10.75Z"/>
          <path class="cls-6" d="M428.24,337.13c-23.15,3.46-47.09,3.33-70.24-.12-15.84-2.48-32.57-6.63-46.59-14.63-.94-.59-1.88-1.19-2.83-1.77,1.17,15.16,6.9,27.86,10.32,42.34.26,1.98.59,3.94.92,5.92,5.04,1.98,10.63,3.05,15.95,4.13,10.24,1.89,20.63,3.16,31.05,3.47,19.43.68,39.3-1.67,57.82-7.7,5.37-1.68,10.52-3.89,15.79-5.88-.82-2.67-1.63-5.18-1.29-8.03.28-2.28.19-4.46,0-6.74-.32-5.03,1.58-9.27,3.57-13.73-4.79,1.09-9.6,2.04-14.46,2.73ZM357.68,345.91c-.55-2.55-1.33-5.01-2.09-7.5.46.46.92.93,1.36,1.41,3.5,4.71,6.01,9.87,5.76,15.89-.1,2.5-1.2,5.09-3.77,5.86-1.72.58-2.82-.34-4.21-1.16-2.25-5.32-.21-10.14,2.95-14.5Z"/>
          <path class="cls-6" d="M339.92,152.87c.69,2.54,1.67,4.89,3.51,6.83,2.17,2.07,4.84,3.09,7.7,3.81,5,1.35,10.03.86,15.01-.34,7.95-1.95,15.71-5.15,23.62-7.28,6.83-1.83,13.39-3.06,19.84-6.16,10.77-5.03,19.28-13.71,26.75-22.77,0-1.9.03-3.81.07-5.71,1.38,2.39,2.61,6.23,5.88,6.39,2.51.44,4.53-1.36,6.33-2.82,5.27-4.69,9.77-10.54,12.5-17.07.78-2.06,2.02-5.52-.27-7.04-3.44-2.24-7.8-1.09-11.11.8-3.32,2.02-7.23,4.16-9.61,7.29-3.2,4.09-6.97,7.55-10.61,11.25-2.14,2.22-4.8,2.89-7.64,3.82,3.49-3.55,5.28-6.82,5.86-11.83,1.77-8.58-.61-17.2-2.28-25.6-1.98-10.31-3.39-20.27-.08-30.51-8.52,4.98-18.49,4.67-27.95,3.43-8.61-1.59-16.52-5.32-25.06-7.11-5.23-1.17-11.35-1.27-16.57-.06-4.5,1.07-6.76,4.86-9.28,8.39-2.39,3.46-3.87,6.97-4.04,11.23.71.6,1.43,1.2,2.14,1.8,2.67-1.25,4.81-1.46,7.74-1.17,1.02.57,2.04,1.14,3.02,1.77,4.26,4,5.35,9.77,3.68,15.27-.57,2.24-1.02,3-3.49,2.62-1.15-.04-2.26-.2-3.36-.46-2.13-1.04-3.97-2.45-5.76-3.99-1.35-.92-2.75-1.75-4.1-2.67-.77-.59-1.51-1.21-2.26-1.81-2.22,4.41-4.52,8.43-5.55,13.32-1.13,5.56-1.38,11.33-.98,16.98,1.16,13.4,2.74,26.39,6.34,39.4ZM443.88,115.9c0-1.96-1.17-3.9-1.01-5.85.43-1.72,1.06-3.36,2.74-4.2,3.44-1.63,7.99-1.82,11.3.24-1.52.47-3.05.93-4.58,1.36,1.56,1.82,2.97,3.2,2.36,5.84-.78,2.88-4.43,4.95-6.74,6.59,1.28-1.93,3.47-4.04,3.27-6.5-.69-1.01-1.78-1.77-2.71-2.57-.17,2.14.22,4.16-1.31,5.88-1.61,1.62-4.06,2.53-6.11,3.5l-.28-.24c1.03-1.19,2.67-2.48,3.06-4.05ZM363.11,156.25c-3.18,1.53-6.71.91-9.9-.23-5-2.64-7.2-6.6-6.6-12.28,1,1.71,1.86,3.54,3.43,4.8,2.57,2.13,5.64,2.83,8.82,3.5,3.84.66,7.58.11,11.27-.98-2.1,2.12-4.21,4.07-7.02,5.19ZM405.72,71.71c6.75,2.3,12.61,8.36,15.02,15.03-4.84-5.06-10.19-7.79-17.12-8.87-5.69-1-10.81.6-16.06,2.59-.65-1.92-1.31-3.82-2-5.72,5.69-3.97,13.57-5,20.16-3.04ZM387.43,88.04c3.68-2.41,7.46-4.3,11.99-3.84,6.4.74,11.01,4.43,15.39,8.83,1.74,2,3.73,1.6,6.14,1.88-5.38,4.37-11.08,7.98-18.18,8.56-2.93.12-5.29-1.14-7.46-2.96-2.09-.25-3.97-.97-5.83-1.93-2.46-1.35-6.53-1.76-8.02-4.26,1.97-2.26,3.43-4.6,5.96-6.27ZM398.83,127.77c-.65-.89-1.47-1.65-2.5-2.28,3.49-.78,6.27.16,8.34,3.08.61,3.4-1.55,4.84-4.05,6.45.11-1.56.13-3.13.13-4.69-3.47,1.46-6.88,2.08-10.59,2.57-6.11,3.6-11.3,9.02-17.34,12.77-5.96,3.63-14.26,3.43-19.65-1.15-2.58-2.37-4.56-5.67-5.01-9.18-.78-4.82-.85-9.79-.63-14.66-1.19-.74-2.36-1.48-3.54-2.24.04,1.24.09,2.47.15,3.7-2.08-1.2-3.46-2.89-3.8-5.31.31-2.25,1.94-4.73,4.45-4.7,1.88,1.22.35,2.2-.03,3.78,4.49,2.95,9.41,4.24,14.72,4.72,7.12.72,13.88,2.88,20.41,5.74,5.82,2.64,12.78,2.75,18.94,1.4ZM367.44,115.32c-2.25-1.62-4.66-2.99-7-4.49,2.25-.11,4.24-.02,6.44.43.23,1.35.4,2.7.56,4.06ZM373.42,117.91c-1.42.18-2.85.27-4.3.25l1.25-1.53c1.83-1.96,2.13-3.69,2.22-6.32-.53-1.23-1.14-2.41-1.74-3.59,2.7,1.5,5.75,3.29,5.94,6.75-.41,1.73-1.61,3.81-3.37,4.44ZM353.78,62.76c-3.39,0-5.77,1.68-8.5,3.42.82-1.77,1.44-3.41,3.27-4.38,2.42-1.42,6.19-2.91,8.87-1.43,2.99,2.21,4.3,6.93,5.37,10.33-.49.83-.97,1.67-1.46,2.5-2.83-3.21-5.5-6.68-7.56-10.44ZM352.73,98.77c4.24-4.19,8.44-8.79,11.46-13.95.47-2.83.03-5.82.24-8.7,1.38,2.07,2.52,4.24,3.41,6.56.66,2.2.98,3.57-.42,5.53-4.46,6.64-9.91,13.74-16.79,17.99.18.75.38,1.5.56,2.25,1.68.73,3.36,1.47,5,2.3,1.52,1.36,2.88,2.87,4.17,4.44-3.63-1.13-7.65-1.38-11.11-2.89-2.13-1.49-3.96-4.84-3.16-7.46,1.42-2.51,4.63-3.96,6.63-6.06Z"/>
          <path class="cls-6" d="M437.16,204.51c1.19.05,2.03-.92,2.92-1.59,5.53-4.9,11.48-9.98,18.41-12.74-3.44-2.65-7.11-4.74-10.19-7.86-12.31-12.02-15.81-31.81-7.86-47.18-3.25-2.13-3.81-3.91-4.23-7.7-.36.82-.73,1.62-1.12,2.43-3.5,6.71-7.32,13.62-12.35,19.31-4.58,4.64-10.27,7.83-16.4,9.96-8.87,3.07-18.08,3.47-26.76,7.23.5,1.98.79,3.8.26,5.82-1.72,8.67-7.89,16.91-12.79,24.15,2.32.68,4.6,1.05,6.41,2.79,1.56,1.65,2.75,3.6,4.34,5.23,0-3.05-.39-6.86,1.13-9.61,1.29-2.23,2.88-4.27,4.24-6.46-1.31,4.72-1.97,9.38.05,14.02,6.27-2.57,11.8-.48,17.53,2.24-3.64.3-7.46.3-11.02,1.18-3.67.95-5.73,3.68-8.9,5.35-3.2,1.09-7.38.58-9.8-1.94-1.69-1.76-2.31-4.4-3.89-6.19-2.9-2.37-6.86-3.6-10.08-5.58,2.97-.54,5.92-.94,8.95-1,1.93-4.9,3.74-9.86,5.43-14.85-2.14,1.55-4.64,2.49-6.79,3.99-3.15,3.51-5.94,7.44-8.46,11.41-.34.55-.68,1.09-1.02,1.65-5.07,8.46-9.38,17.41-10.75,27.29-.73,5.98-.56,12.31,2.22,17.78,1.46,2.9,3.68,5.18,6.4,6.91,2.04,1.3,4.23,2.11,6.54,2.73,1.04-4.44,1.49-9.08,1.23-13.63-.29-3.11-.71-6.21-.89-9.34,3.6,3.49,5.49,7.12,6.7,11.98,4.19-4.25,9.25-7.95,15.08-9.51-6.8,5.82-11.46,13.25-13.96,21.83,2.41-.1,4.79-.24,7.14-.81,4.94-1.31,9.52-3.57,13.75-6.4,6.01-4.01,11.73-8.5,17.26-13.15,6.38-5.16,12.12-10.72,18.16-16.22,2.84-2.67,5.73-5.16,8.36-8.04-4.26-.85-8.54-1.58-12.83-2.2-1.55-.24-3.05-.48-4.45-1.23,3.33-.98,6.69-1.03,10.1-1.42,3.97-.44,7.95-.47,11.93-.61ZM394.04,195.43c2.14-3.39,4.81-6.32,7.16-9.55,2.62-3.53,5.1-7.17,7.84-10.62,3.21-4.05,5.93-8.19,9.82-11.66,1.04-.93,2.09-1.84,3.15-2.75-4.66,9.27-9.95,18.85-16.79,26.69-3.3,3.2-6.99,5.95-11.18,7.89Z"/>
          <path class="cls-6" d="M229.93,163c-1.59,6.33-3.78,12.3-7.74,17.55-3.07,3.82-7.15,7.67-12.1,8.71,3.91-4.84,7.67-9.55,9.92-15.45,2.79-7.05,3.31-14.18,3.46-21.68.57-10.89,0-21.08,1.99-31.93.66-3.75,2-7.19,3.26-10.77-.85-.59-1.69-1.19-2.53-1.81-2.86-2.14-3.69-5.52-2.95-8.92.87-2.55,2.89-3.29,5.22-4.1-.18-1.98-.14-3.78.28-5.74,1.14,1.67,1.88,3.5,2.48,5.42.54,1.77.66,3.58.71,5.43-.89-.8-1.78-1.59-2.66-2.41-.82,1.64-1.14,3.31-1.37,5.11,2.35.71,5.95,2.93,7.98.64,3.43-3.2,7.05-7.26,6.59-12.31-.34-6.25.14-12.44.55-18.66,1.97,2.54,2.84,6.06,3.99,9.05,1.18,3.38,2.25,6.8,3.07,10.3,3.74-2.53,9.29-4.89,10.67-9.58-.09-4.51-2.31-8.99-3.19-13.51-.08-.4-.15-.79-.2-1.19-.56-2.62-.78-5.21-.76-7.89,2.45,2.89,4.51,6.04,6.48,9.27,1.99,3.24,3.65,6.57,4.87,10.17,2.68-1.97,6.23-3.77,7.28-7.13.77-2.42,1.14-5.18.69-7.7-1.84-3.28-4.76-6.06-7.59-8.51-1.8-1.51-3.77-3.2-5.99-4.04-2.54-.02-5.21.83-7.62,1.58-10.14,3.13-19.66,9.32-28.12,15.62-6.08,4.67-12.24,9.78-16.96,15.85-3.52,4.53-5.11,9.51-7.1,14.79-2.84,7.7-6.33,15.13-10.67,22.1-3.36,5.55-7.27,10.91-10.17,16.71-2.89,5.81-3.4,11.91-4.42,18.24-1.05,9.07-3.22,16.86-1.39,26.11.44,1.94,1.97,3.57,3.25,5.04,1.72,1.9,3.36,3.75,5.64,5.02,11.2,6.59,20.7,14.79,32.28,20.85,9.97,5.21,20.86,8.81,31.93,10.77,6.4,1.4,13.02,2.07,19.19,4.1-.13-4.62-.66-9.08-.44-13.71.37-8.4,2.38-16.83,6.17-24.37,2.7-5.38,6.28-10.07,10.93-13.93-13.14-.94-22.95-8.89-35.97-10.22-6.43-.6-12.73-.82-18.93-2.89Z"/>
          <path class="cls-6" d="M358.26,349.33l-.2-.41c-1.24,1.87-2.27,4.37-1.96,6.65.24.47.61.88,1.14,1.25.86-2.46,1.35-4.86,1.03-7.49Z"/>
        </g>
        <g>
          <path class="cls-7" d="M328.04,291.64c2.07.43,4.36.18,5.95,1.56-7.45,3.04-15.46,3.95-23.43,2.99-.47,1.83-.93,3.66-1.26,5.53-.88,3.89-1.29,7.54-1.26,11.53,15.96,10.64,35.22,15.15,53.97,17.71,14.43,2.09,28.73,1.96,43.28,1.63,12.52-.8,24.97-2.24,37.18-5.25,2.02-.61,4.77-.47,5.93-2.48,11.17-15.85,23.43-30.78,30.25-48.98.37-.98.74-1.94,1.12-2.92-6.29-2.15-13.77-1.43-20.17-.06,4-3.73,10.24-4.86,15.48-5.53,9.22-1.19,17.98,1.07,26.26,5,1.94-7.22,5.21-13.7,9.51-19.78l.65-.97c6.85-9.81,15.37-18.18,26.33-23.26-2.53-3.73-4.67-7.6-7.51-11.11-5.18-6.62-12.45-12.33-20.61-14.67-11.23-3.38-22.14-2.4-33.78-5.13-3.68-.76-7.11-2.14-10.61-3.45-3.41,2.57-7.41,4-10.88,6.44-3.28,2.24-6.35,4.84-9.23,7.59-13.91,13.55-27.32,27.1-42.56,39.01-.43.33-.87.66-1.3.98-6.82,4.71-12.91,9.56-20.88,12.35-6.64,2.51-13.67,2.91-20.62,1.52-8.15-1.42-15.87-5.8-20.05-13.12-4.63-8.14-4.74-17.85-2.78-26.81,1.56-7.69,4.9-14.48,8.5-21.36,1.21-1.78,2.41-3.57,3.63-5.36,2-3.06,4.53-5.64,7.12-8.18-4.34-.1-8.56-.92-12.45-2.89-4.95-2.56-9.86-5.21-14.63-8.09-3.76-2.28-7.88-3.82-12.23-4.5-5.8-.99-11.83-.05-17.52,1.25-2.22.5-4.28,1.33-5.92,2.97-6.77,6.37-11.73,14.9-14.79,23.63-3.87,9.41-5.27,20.03-3.95,30.12,3.42,2.07,5.58,4.84,7.55,8.25,4.6-6.56,9.75-12.62,16.17-17.49,9.79-7.85,21.02-12.33,31.18-19.44,1.56-.79,3.13-1.51,4.75-2.18-.47,2.23-1.8,3.84-3.12,5.62-6.56,9.45-18.38,15.37-26.86,23.22-5,3.73-9.2,8.65-12.79,13.7-2.46,3.43-4.39,7.22-5.74,11.21-2.29,7.13-1.33,15.66,3.13,21.78,3.77,5.32,9.54,8.97,15.48,11.46,7.43,3.07,15.59,4.72,23.52,5.93ZM362.03,275.05c2.17,9.13,6.28,19.03,13.07,25.69,5.89,5.92,13.44,9.98,21.78,10.96,4.54.71,9.04.29,13.55-.45,6.63-.99,13.25-4.74,19.18-7.75,6.14-2.99,11.82-7.39,17.09-11.72-4.59,6.34-9.56,13.24-15.73,18.13-6.6,5.58-15.53,8.61-24.01,9.66-14.37,1.81-29.37-4.1-37.81-16.04-5.85-8.14-8.39-18.55-7.12-28.48Z"/>
          <path class="cls-7" d="M480.19,64.01c.6,3.96.5,7.99,1.03,11.97,4.95-2.41,7.39-7.1,8.33-12.34.24-2.7-.18-5.32-.98-7.89-1.54-3.05-3.58-5.7-6.79-7.12-2.04-.95-4.03-.87-6.22-.98.96,2.57,1.92,5.11,2.7,7.75.79,2.83,1.43,5.71,1.93,8.61Z"/>
          <path class="cls-7" d="M329.76,397.81c2.64,2.6,4.49,5.53,6.05,8.87,1.87,3.94,3.9,7.8,6.06,11.58,31.99.26,64.41-4.09,95.75-4.09,9.87-.38,19.74-1.34,29.62-2.71-4.14-6.35-8.74-12.4-13.39-18.52-5.41-6.84-10.7-14.82-12.93-23.32-3.1,1.4-6.3,2.53-9.54,3.57-27.23,8.71-56.54,11.14-84.86,7.27-8.44-1.14-16.66-3.1-24.91-5.18-.19,4.79-1.09,8.64-3.35,12.86-4.61,8.92-8.82,18.01-12.31,27.38,9.8,1.56,19.71,2.36,29.66,2.64-3.8-6.12-5.22-13.06-5.86-20.34Z"/>
        </g>
        <g>
          <path class="cls-4" d="M465.58,47.48c-2.72-5.46-6.25-10.51-10.53-14.9-8.93-9.39-20.97-16.17-33.77-18.43-5.42-1.03-10.7-1.24-16.19-.69,1.04.81,2.1,1.59,3.19,2.34,3.02,2.05,6.04,4.49,8.67,7.28,2.49,2.64,4.62,5.6,6.03,8.83-3.62-3.39-7.37-6.8-11.56-9.47-10.67-7.15-23.58-10.71-36.41-9.79-13.23.82-26.1,6.3-35.5,15.7-11.78,11.67-17.71,29.22-14.16,45.59.47-2.73,1.18-5.13,2.39-7.63.45-1.01.87-2.04,1.28-3.08.73-.38,1.01-.98.83-1.81,1.24-2.09,2.39-4.23,3.58-6.34l.13.75c-.66,7.12.26,14.66,1.67,21.66,1.53-3.04.79-6.97,1.83-10.26.84-2.67,2.17-5.21,3.37-7.73,1.74-3.59,4.46-6,7.08-8.92,2.15-1.59,4.27-3.09,6.85-3.89,4.1-1.45,8.6-.97,12.9-.97,7.49.7,14.63,2.55,21.72,5.03,10.76,3.25,24.08,5.47,34.8,1.18,4.75-1.75,9.26-2.55,13.39-5.67-5.86,7.4-8.14,17.56-7.88,26.84.09,12.36,5.78,22.92,5.2,35.49,3.67-4.36,6.93-8.92,8.92-14.3,1.83-4.98,4.39-10.11,4.31-15.39.31.28.63.56.94.84.26,7.33-.81,13.7-3.2,20.6,2.09-1.82,4.26-3.43,6.58-4.94.18-1.64.37-3.25.98-4.79,4.18-10.58,6.27-23.21,3.17-34.33-2.47-9.02-8.76-16.47-17.13-20.62-3.35-1.78-6.85-2.66-10.37-4.01,5.59-1.61,11.37-.69,16.7,1.38,7.26,2.94,12.84,8.75,16.19,15.75,3.89,8.18,5,17.79,3.85,26.72-.61,6.29-2.56,12.1-4.64,18.03,2.34.87,4.49,1.89,6.64,3.15,3.43-8.6,5.21-17.7,4.41-26.97-.67-7.73-2.81-15.31-6.25-22.24Z"/>
          <path class="cls-4" d="M497.94,178.96c-.45-3.12-1.14-5.94-.63-9.12,1.5-9.03,2.64-17.88,6.03-26.47.61,4.39,1.02,8.68,2.12,13,1.31,5.27,3.54,10.17,6.21,14.9l.56,1.01c1.22,2.21,2.81,4.13,4.53,5.96-.13-5.69.3-11.31,2.03-16.77,2.2-7.77,6.16-14.46,10.02-21.46,5.89-8.87,10.61-18.6,14.82-28.35,3.67-7.91,4.49-16.47,4.12-25.09-.71-11.57-4.71-22.87-12.31-31.72-6.51-7.64-15.64-12.94-25.84-13.2-6.33-.22-12.21,1.76-17.66,4.83,2.11,3.11,4.1,6.11,4.84,9.87.19,1.05.38,2.1.56,3.15.58,5.16-.35,9.85-2.12,14.67,2.59.58,4.85,1.25,6.56,3.42,3.5,4.16,5.27,10.01,6.85,15.12-3.33-3.64-6.05-9.17-10.3-11.74-1.7-1.14-3.77-.31-5.59-.04,1.29,4.1,2.68,7.98,2.71,12.35.05,7.56-2.15,15.48-4.21,22.71-4.07,13.92-10.48,28.28-10.69,42.9-.23,10.88,3.2,21.62,11.25,29.2,1.34,1.32,2.73,2.59,4.13,3.84,2.93.18,5.85.37,8.76.56-3.12-4.05-5.56-8.52-6.74-13.52Z"/>
        </g>
        <path class="cls-5" d="M349.76,78.63c-1.32.69-3.73,1.24-4.01,2.94-.72,2.2.04,4.01.71,6.08,1.79,1.54,3.63,2.94,5.76,3.99-4.11-3.3-4.37-8.39-2.46-13.01Z"/>
        <path class="cls-5" d="M353.54,84.29c2.67-.59,2.27-5.21-1.03-4.26-1.61,1.08-1.22,4.61,1.03,4.26Z"/>
        <path class="cls-5" d="M359.07,89.48c-1.76-.24-2.41,1.56-3.49,2.62,2.47.38,2.92-.39,3.49-2.62Z"/>
        <path class="cls-5" d="M395.55,89c-4.56.66-7.03,1.9-10.36,5.06,1.46,1.48,2.89,2.99,4.29,4.53,1.86.97,3.74,1.68,5.83,1.93-1.18-1.72-2.23-3.35-2.2-5.53-.08-2.42,1.14-4.11,2.44-5.99Z"/>
        <path class="cls-5" d="M396.66,94.42c2.34,1.61,5.61-.93,4.32-3.53-1.21-1.92-2.99-1.46-4.84-.87-.35,1.74-1.22,3.08.52,4.4Z"/>
        <path class="cls-5" d="M409.92,97.13c-.07-1.67-1.31-3.36-2.15-4.78,0,3.43-.6,5.27-2.43,8.1,1.51-.66,4.11-1.55,4.58-3.32Z"/>
        <path class="cls-5" d="M356.74,127.52c3.09,2.04,6.93,3.09,10.54,3.73,4.37.7,8.65,1.01,12.99-.16-8.06-3.6-15.2-7.22-24.27-7.46.03,1.22-.62,3.22.74,3.89Z"/>
        <g>
          <path class="cls-1" d="M341.45,151.28c.67,3.09,2.2,5.43,1.97,8.43,2.17,2.07,4.84,3.09,7.7,3.81-.27-3.3.28-4.84,2.09-7.49-5-2.64-7.2-6.6-6.6-12.28,1,1.71,1.86,3.54,3.43,4.8,2.57,2.13,5.64,2.83,8.82,3.5,0-1.03-.02-2.08-.02-3.12-2.77-1.24-6.01-2.28-8.35-4.23-2.41-2.18-3.72-5.72-4.63-8.76-1.31-4.49-.63-8.57-.85-13.13l-.87-.67c-2.08-1.2-3.46-2.89-3.8-5.31.31-2.25,1.94-4.73,4.45-4.7,1.88,1.22.35,2.2-.03,3.78,4.49,2.95,9.41,4.24,14.72,4.72.77-1.01,1.43-2.65,2.59-3.24,2.61-1.01,5.55-1.03,8.3-.77,1.83-1.96,2.13-3.69,2.22-6.32-1.9.38-3.78.75-5.71.94.23,1.35.4,2.7.56,4.06-2.25-1.62-4.66-2.99-7-4.49-1.66-.58-2.5-.74-4.23-.08,1.52,1.36,2.88,2.87,4.17,4.44-3.63-1.13-7.65-1.38-11.11-2.89-2.13-1.49-3.96-4.84-3.16-7.46,1.42-2.51,4.63-3.96,6.63-6.06,4.24-4.19,8.44-8.79,11.46-13.95.47-2.83.03-5.82.24-8.7,1.38,2.07,2.52,4.24,3.41,6.56,1.59-.04,3.16-.53,4.44.69,1.55,1.44,2.8,3.22,4.15,4.85.06-3.95.18-8.05-.48-11.96-1.05-3.44-5.23-5.86-5.36-9.88-.4-4.99,1.84-8.63,4.16-12.77-.79-.46-1.59-.93-2.39-1.37-5.23-1.17-11.35-1.27-16.57-.06-4.5,1.07-6.76,4.86-9.28,8.39-2.39,3.46-3.87,6.97-4.04,11.23.71.6,1.43,1.2,2.14,1.8,2.67-1.25,4.81-1.46,7.74-1.17-1.34-.87-2.58-1.84-3.86-2.8.57-2.09.93-3.74,3.15-4.59,4.04.81,5.92,6.07,7.28,9.44-1.18-.09-2.36-.19-3.55-.28,4.26,4,5.35,9.77,3.68,15.27-.57,2.24-1.02,3-3.49,2.62-1.15-.04-2.26-.2-3.36-.46-2.13-1.04-3.97-2.45-5.76-3.99-1.35-.92-2.75-1.75-4.1-2.67-1.67,2.43-3.27,4.79-4.15,7.65-1.92,6.02-1.47,12.09-1.93,18.32-.45,6.34.12,12.64,1.22,18.88,1.14,7.17,2.38,14.36,3.94,21.45ZM353.78,62.76c-3.39,0-5.77,1.68-8.5,3.42.82-1.77,1.44-3.41,3.27-4.38,2.42-1.42,6.19-2.91,8.87-1.43,2.99,2.21,4.3,6.93,5.37,10.33-.49.83-.97,1.67-1.46,2.5-2.83-3.21-5.5-6.68-7.56-10.44ZM341.47,90.08c2.78,1.83,5.6,3.84,8.12,6.01l.03.5c-1.76,2.49-4.45,4.48-6.8,6.4-2.86-3.47-2.8-8.86-1.35-12.91Z"/>
          <path class="cls-1" d="M263.06,68.54c1.99,3.24,3.65,6.57,4.87,10.17,2.68-1.97,6.23-3.77,7.28-7.13.77-2.42,1.14-5.18.69-7.7-1.84-3.28-4.76-6.06-7.59-8.51,1.19,3.36,2.76,6.67.59,10.02-1.38,2.3-3.48,2.5-5.85,3.16Z"/>
          <path class="cls-1" d="M419.88,70.69c.66,7.82,3.15,14.91,5,22.48,1.58,6.18,2.47,12.5,2.87,18.87,1.77-8.58-.61-17.2-2.28-25.6-1.98-10.31-3.39-20.27-.08-30.51-8.52,4.98-18.49,4.67-27.95,3.43,5.55,4,11.58,3.28,17.59,5.73,2.11,1.05,4.79,3.02,4.85,5.6Z"/>
          <path class="cls-1" d="M260.73,81.87c-.09-4.51-2.31-8.99-3.19-13.51.52,3.28.56,6.29-1.97,8.95-2.25,2.85-5.16,3.36-8.57,3.84,1.18,3.38,2.25,6.8,3.07,10.3,3.74-2.53,9.29-4.89,10.67-9.58Z"/>
          <path class="cls-1" d="M235.88,103.06c3.43-3.2,7.05-7.26,6.59-12.31-.34-6.25.14-12.44.55-18.66-.77-1.03-1.58-2.04-2.36-3.05-1.29,6.47-.81,13.6-3.05,19.77-1.14,3.12-3.7,4.03-6.38,5.48.54,1.77.66,3.58.71,5.43-.89-.8-1.78-1.59-2.66-2.41-.82,1.64-1.14,3.31-1.37,5.11,2.35.71,5.95,2.93,7.98.64Z"/>
          <path class="cls-1" d="M267.08,86.36c-3.46,5.74-7.88,8.9-14.21,10.97-.13,3.28-1.14,5.92,1.74,8.34,1.67-2,3.15-3.95,5.21-5.57,4.03-3.17,9.29-5,13.37-7.73,1.79-1.19,3.19-2.81,3.62-4.96.38-1.96-.38-3.71-.9-5.57-2.81,1.95-5.58,3.41-8.84,4.52Z"/>
          <path class="cls-1" d="M456.91,106.09c-1.52.47-3.05.93-4.58,1.36,1.56,1.82,2.97,3.2,2.36,5.84-.78,2.88-4.43,4.95-6.74,6.59,1.28-1.93,3.47-4.04,3.27-6.5-.69-1.01-1.78-1.77-2.71-2.57-.17,2.14.22,4.16-1.31,5.88-1.61,1.62-4.06,2.53-6.11,3.5,1.24,1.02,2.01,2.3,3.78,2.26,4.92.13,8.63-4.2,10.62-8.24,1.48-2.57,1.68-5.23,1.42-8.12Z"/>
          <path class="cls-1" d="M273.91,190.03c-3.73,1.88-6.55,4.24-10.77,5-10.88,2.25-23.06.92-32.4-5.43-3.59-2.41-6.01-5.64-8.55-9.04-3.07,3.82-7.15,7.67-12.1,8.71,3.91-4.84,7.67-9.55,9.92-15.45,2.79-7.05,3.31-14.18,3.46-21.68.57-10.89,0-21.08,1.99-31.93.66-3.75,2-7.19,3.26-10.77-.85-.59-1.69-1.19-2.53-1.81-2.73,4.21-3.09,8.59-4.42,13.33-2.61,9.47-3.87,19.22-6.59,28.67-2.04,9.79-5.4,19.58-10.38,28.29-2.69,4.09-5.43,8.85-9.89,11.14-3.26,1.96-6.59,2.05-10.12,3.34,11.2,6.59,20.7,14.79,32.28,20.85,9.97,5.21,20.86,8.81,31.93,10.77,6.4,1.4,13.02,2.07,19.19,4.1-.13-4.62-.66-9.08-.44-13.71.37-8.4,2.38-16.83,6.17-24.37Z"/>
          <path class="cls-1" d="M404.67,128.57c.61,3.4-1.55,4.84-4.05,6.45-1,1.54-1.94,3.12-2.84,4.73,4.9-.77,10.11-4.82,9.75-10.19-.81-5.42-6.59-8.02-11.46-5.96-1.33.13-.18,1.4.26,1.89,3.49-.78,6.27.16,8.34,3.08Z"/>
          <path class="cls-1" d="M432.4,209.97c-4.26-.85-8.54-1.58-12.83-2.2-1.55-.24-3.05-.48-4.45-1.23,3.33-.98,6.69-1.03,10.1-1.42,1.47-.34,2.92-.77,4.37-1.18-3.95-1.68-7.67-3.31-8.55-8.01-.61-5.28,1.07-11.04,3.41-15.77-6.41,3.78-12.95,7.75-19.74,10.82.17-1.15.34-2.3.5-3.44-3.3,3.2-6.99,5.95-11.18,7.89,2.14-3.39,4.81-6.32,7.16-9.55,2.62-3.53,5.1-7.17,7.84-10.62,3.21-4.05,5.93-8.19,9.82-11.66.97-5.12,3.8-9.11,3.88-14.42-4.58,4.64-10.27,7.83-16.4,9.96-8.87,3.07-18.08,3.47-26.76,7.23.5,1.98.79,3.8.26,5.82-1.72,8.67-7.89,16.91-12.79,24.15,2.32.68,4.6,1.05,6.41,2.79,1.56,1.65,2.75,3.6,4.34,5.23,0-3.05-.39-6.86,1.13-9.61,1.29-2.23,2.88-4.27,4.24-6.46-1.31,4.72-1.97,9.38.05,14.02,6.27-2.57,11.8-.48,17.53,2.24,3.78.27,7.54,1.22,11.27,1.91-7.86,1.47-15.75,1.46-23.48,3.89-5.72,1.88-11.23,3.07-17.11.97-3.52-1.35-5.29-4.05-7.43-6.94-1.88-2.9-5.89-4.1-8.82-5.83-5.07,8.46-9.38,17.41-10.75,27.29,2.14.24,4.28-.29,5.8,1.58,3.5,4.46,6.87,9.68,6.43,15.61-.2,3.07-1.87,5.14-3.61,7.5,2.04,1.3,4.23,2.11,6.54,2.73,1.04-4.44,1.49-9.08,1.23-13.63-.29-3.11-.71-6.21-.89-9.34,3.6,3.49,5.49,7.12,6.7,11.98,4.19-4.25,9.25-7.95,15.08-9.51-6.8,5.82-11.46,13.25-13.96,21.83,2.41-.1,4.79-.24,7.14-.81-2.65-1.1-2.4-4.37-1.74-6.65,2.4-6.4,7.46-10.57,13.38-13.63,3.69-1.82,7.9-3.86,12.06-4.03,3.5-.07,5.04,2.62,7.31,4.77,6.38-5.16,12.12-10.72,18.16-16.22,2.84-2.67,5.73-5.16,8.36-8.04Z"/>
          <path class="cls-1" d="M356.18,196.9l.87.45c2.97-.54,5.92-.94,8.95-1,1.93-4.9,3.74-9.86,5.43-14.85-2.14,1.55-4.64,2.49-6.79,3.99-3.15,3.51-5.94,7.44-8.46,11.41Z"/>
          <path class="cls-1" d="M549.1,300.65c3.68-2.85,7.57-6.14,11.91-7.89,5.01-1.77,10.27-2.73,15.59-2.25,1.92-.49,3.82-1.01,5.69-1.67-8.72-1.34-17.71-3.34-25.79-6.96-4.35-1.87-8.5-4.41-12.67-6.72-6.51-3.78-12.48-8.13-16.32-14.79-1.99-3.31-3.2-6.9-3.96-10.68-6.56,7.49-13.36,16.88-15.13,26.86,10.18,5.85,19.13,13.37,29.51,18.84,3.63,1.99,7.57,3.21,11.17,5.26Z"/>
          <path class="cls-1" d="M614.93,297.25c-3.19,3.65-4.99,8.12-8.27,11.71-3.22,3.49-6.48,7.03-10.19,10.01-7.51,5.82-15.43,11.09-23.62,15.9-3.89,2.29-7.83,4.42-11.57,6.95-6.21,4.35-13.62,7.46-20.52,10.57-5.57,2.56-11.43,4.16-17.09,6.45-10.71,4.05-20.09,8.9-31.68,10.64-4.71.58-9.21,1.24-13.97.71,2.09-2.55,6.02-3.36,8.84-5-11.3.06-23.48,1.55-34.58-.87,1.01,2.55,2.11,5.06,3.52,7.42.63.68,1.24,1.37,1.85,2.08-1.23-.18-2.46-.38-3.67-.65,1.31,2.92,4.21,5.4,4.73,8.55,4.58,3.33,10.82,4.47,16.38,4.18,7.57-.47,13.95-3.2,20.87-5.9,4.35-1.77,9.11-1.05,13.04-3.36-3.02-.3-5.98-.57-8.86-1.63,10.72-1.43,20.41-5.27,30.33-9.35,20.88-8.8,41.39-19.47,59.89-32.58,5.8-4.12,11.51-8.73,16.32-13.97,3.02-3.29,4.78-7.11,6.63-11.1,1.59-3.29,1.76-7.17,1.61-10.75ZM470.17,382.33c-2.74-.73-5.26-3.1-6.96-5.32,4.05.46,8.04,1.35,12.09,1.91-1.4,1.14-3.26,3.39-5.12,3.41Z"/>
          <path class="cls-1" d="M356.71,365.54c-.69-1.69-1.36-3.4-1.98-5.12-2.25-5.32-.21-10.14,2.95-14.5-.55-2.55-1.33-5.01-2.09-7.5.46.46.92.93,1.36,1.41.35-.94.71-1.88,1.05-2.81-15.84-2.48-32.57-6.63-46.59-14.63.27,5.49,2.32,10.86,3.37,16.26,2.46,7.68,5.14,16.07,4.11,24.32.26,1.98.59,3.94.92,5.92,5.04,1.98,10.63,3.05,15.95,4.13,10.24,1.89,20.63,3.16,31.05,3.47-1.71-3.68-3.78-7.13-5.17-10.96-1.64,0-3.28,0-4.93,0ZM348.64,362.42c-1.67-.69-5.8-1.44-6.04-3.55.77-4.21,4.44-8.2,7.77-10.73-1.47,4.9-2.08,9.13-1.73,14.28Z"/>
          <path class="cls-1" d="M428.24,337.13l1.02.83c.56,10.3-2.67,21.22-4.63,30.82,5.37-1.68,10.52-3.89,15.79-5.88-.82-2.67-1.63-5.18-1.29-8.03.28-2.28.19-4.46,0-6.74-.32-5.03,1.58-9.27,3.57-13.73-4.79,1.09-9.6,2.04-14.46,2.73Z"/>
          <path class="cls-1" d="M480.92,357.11c-2.32-1.92-4.58-3.9-6.88-5.84-2.81,1.01-5.41,2.49-8.2,3.56-1.36.52-2.48,1.16-3.56,2.14,6.19.42,12.44.34,18.64.14Z"/>
        </g>
        <g>
          <path class="cls-10" d="M298.5,220.33c9.79-7.85,21.02-12.33,31.18-19.44-6.88,2.53-12.67,7.75-19.55,10.3-4.26.93-9.08-.12-13.26-1.16-7.23-2.05-12.98-5.71-17.39-11.86l-.75,1.27c-3.87,9.41-5.27,20.03-3.95,30.12,3.42,2.07,5.58,4.84,7.55,8.25,4.6-6.56,9.75-12.62,16.17-17.49Z"/>
          <path class="cls-10" d="M309.99,284.47c6.26,2.46,11.41,5.75,18.05,7.17,2.07.43,4.36.18,5.95,1.56-7.45,3.04-15.46,3.95-23.43,2.99-.47,1.83-.93,3.66-1.26,5.53.14.82.29,1.63.45,2.45.42-2.29.82-4.58,1.23-6.86,3.64-.31,7.22-.47,10.85.19-.52,2.73-1.3,5.37-1.89,8.07-.62,1.83,1.29,3.24,2.41,4.41,6.34,5.57,13.84,10.18,21.98,12.57,7.78,2.94,15.59,5.53,23.87,6.54,5.9.6,11.05,3.26,16.91,3.01,7.57-.11,15.15.03,22.72-.05,6.18-.57,12.32-1.5,18.52-1.93,6.25-1.29,12.59-2.3,18.75-3.96,2.46-.41,3.78-3.76,4.86-5.73,3.24-7.26,7.28-14.09,10.68-21.27,2.82-5.9,5.54-11.88,8.23-17.85,1.35-2.88,2.3-6.03,3.96-8.74,1.55-.7,4.01.41,5.64.66.07.88.13,1.76.18,2.64.37-.98.74-1.94,1.12-2.92-6.29-2.15-13.77-1.43-20.17-.06,4-3.73,10.24-4.86,15.48-5.53,9.22-1.19,17.98,1.07,26.26,5,1.94-7.22,5.21-13.7,9.51-19.78-6.05.8-11.83,1.34-17.73-.68-4.21-1.19-7.75-3.5-11.26-6.01-10.57,4.16-20.68,10.05-29.41,17.34-6.58,5.9-12.43,12.71-17.73,19.77,5.06-3.39,10.8-5.19,16.74-6.33-6.84,10.14-17.65,17.81-28.99,22.18-7.04,2.77-14.64,4.22-22.21,4.2-8.75.07-17.38-3.56-24.08-9.06-5.79-4.74-9.99-11.4-13.04-18.16-1.75-3.89-1.41-8.02-1.62-12.23,4.31-.43,8.53.22,12.69-.68,6.87-1.39,13.52-4.31,19.2-8.41,2.87-2.05,5.85-3.54,7.96-6.48-6.82,4.71-12.91,9.56-20.88,12.35-6.64,2.51-13.67,2.91-20.62,1.52-8.15-1.42-15.87-5.8-20.05-13.12-4.63-8.14-4.74-17.85-2.78-26.81,1.56-7.69,4.9-14.48,8.5-21.36-1.16,1.18-2.26,2.34-2.98,3.85-2.77,5.58-5.02,11.49-6.51,17.54-1.13,4.34-.82,8.84-.86,13.42-.11,4.67,1.59,9.47,3.72,13.57,2.46,4.88,7.35,8.59,12.17,10.95,2.74,1.46,6.57,1.58,8.68,3.85-9.79,7.49-21.98,13.47-34.37,14.59-11.19,1.47-23.63-5.05-28.38-15.39-3.59-7.77-2.41-17,1.11-24.58,1.67-3.92,4.58-7,6.34-10.87-5,3.73-9.2,8.65-12.79,13.7-2.46,3.43-4.39,7.22-5.74,11.21-1.46,5.29.34,10.01,2.71,14.68,4.92,8.29,12.63,13.61,21.36,17.33ZM362.03,275.05c2.17,9.13,6.28,19.03,13.07,25.69,2.62-.36,3.92,1.4,6.05,2.54,9.29,5.51,19.59,6.88,30.23,6.52-.8.37-1.6.75-2.4,1.13.48.11.97.22,1.46.32,6.63-.99,13.25-4.74,19.18-7.75,6.14-2.99,11.82-7.39,17.09-11.72-4.59,6.34-9.56,13.24-15.73,18.13-6.6,5.58-15.53,8.61-24.01,9.66-14.37,1.81-29.37-4.1-37.81-16.04-5.85-8.14-8.39-18.55-7.12-28.48Z"/>
          <path class="cls-10" d="M489.55,63.64c-3.13.08-6.25.21-9.36.37.6,3.96.5,7.99,1.03,11.97,4.95-2.41,7.39-7.1,8.33-12.34Z"/>
          <path class="cls-10" d="M433.98,411.31c1.78-3.77,4.36-7.37,5.31-11.36-5.48,2.8-9.82,7.6-15.03,10.92-1.9,1.19-3.7,2.46-5.46,3.76,4.54-.2,9.07-.34,13.57-.41.54-.96,1.08-1.93,1.61-2.9Z"/>
          <path class="cls-10" d="M365.23,417.77c-2.96-3.26-5.7-6.73-8.24-10.38-5.92-7.86-9.81-17.35-12.99-26.6.84-.13,1.68-.24,2.51-.34-8.44-1.14-16.66-3.1-24.91-5.18-.19,4.79-1.09,8.64-3.35,12.86-4.61,8.92-8.82,18.01-12.31,27.38,9.8,1.56,19.71,2.36,29.66,2.64-3.8-6.12-5.22-13.06-5.86-20.34,2.64,2.6,4.49,5.53,6.05,8.87,1.87,3.94,3.9,7.8,6.06,11.58,7.77.06,15.56-.14,23.36-.5Z"/>
        </g>
        <g>
          <path class="cls-11" d="M465.58,47.48c-10.56-15.77-28.68-25.27-48.63-24.41,2.49,2.64,4.62,5.6,6.03,8.83.23.46.45.92.68,1.38-8.36,2.89-15.94,1.35-24.44.97,4,3.88,9.62,6.24,14.44,9.17-16.42,3.39-32.08-1.52-48.74.17-2.51.31-4.84.4-7.09,1.7,3.15.4,6.28.26,9.44.43,7.49.7,14.63,2.55,21.72,5.03,10.76,3.25,24.08,5.47,34.8,1.18,4.75-1.75,9.26-2.55,13.39-5.67-5.86,7.4-8.14,17.56-7.88,26.84.09,12.36,5.78,22.92,5.2,35.49,3.67-4.36,6.93-8.92,8.92-14.3,1.83-4.98,4.39-10.11,4.31-15.39.31.28.63.56.94.84,1.72-6.75-.16-12.83-2.2-19.23-1.24-3.97-3.44-7.34-5.13-11.1,5.24,2.67,8.18,9.24,10.14,14.49,1.9,4.68,2.11,9.5,2.97,14.39,2.74-11.83-.61-24.94-8.35-34.24-2.63-3.28-6.1-5.28-9.16-8.07l2.13-.32c-3.35-1.78-6.85-2.66-10.37-4.01,5.59-1.61,11.37-.69,16.7,1.38,7.26,2.94,12.84,8.75,16.19,15.75,3.89,8.18,5,17.79,3.85,26.72-.61,6.29-2.56,12.1-4.64,18.03,2.34.87,4.49,1.89,6.64,3.15,3.43-8.6,5.21-17.7,4.41-26.97-.67-7.73-2.81-15.31-6.25-22.24Z"/>
          <path class="cls-11" d="M497.31,169.84c1.5-9.03,2.64-17.88,6.03-26.47.61,4.39,1.02,8.68,2.12,13,1.31,5.27,3.54,10.17,6.21,14.9.43-6.22.36-12.36,1.78-18.48,2.45-10.32,4.95-20.68,8.03-30.83,2.44-7.26,4.98-14.3,5.89-21.96.68-5.28.71-10.67.4-15.99-.24-5.01-2.3-9.92-4.41-14.42-2.08,4.47-2.36,9.71-4.16,14.36-1.61-2.63-2.84-5.69-4.89-8-4.95-4.84-9.76-9.57-16.12-12.55-.3-1.3-.61-2.6-.87-3.9.58,5.16-.35,9.85-2.12,14.67,2.59.58,4.85,1.25,6.56,3.42,3.5,4.16,5.27,10.01,6.85,15.12-3.33-3.64-6.05-9.17-10.3-11.74-1.7-1.14-3.77-.31-5.59-.04,1.29,4.1,2.68,7.98,2.71,12.35.05,7.56-2.15,15.48-4.21,22.71-4.07,13.92-10.48,28.28-10.69,42.9-.23,10.88,3.2,21.62,11.25,29.2-.28-1.96-.73-3.85-1.28-5.75-1.29-4.35-1.41-8.9-.89-13.37,1.02-8.12,3.02-16.1,6.51-23.53,2.79-6,3.73-12.3,4.55-18.79,1.82,4.32,2.76,9.11,3.18,13.76-.21,2.39-2.25,4.59-2.92,6.94-1.51,4.97-2.39,10.25-3.19,15.38-1.31,5.76-1.66,12.08-.24,17.85.14-.54.29-1.07.43-1.61-.45-3.12-1.14-5.94-.63-9.12Z"/>
          <path class="cls-11" d="M526.47,142.79c-5.76,9.48-9.82,19.9-10.74,31.03-1.31-.32-2.41-.73-3.51-1.55,1.22,2.21,2.81,4.13,4.53,5.96-.13-5.69.3-11.31,2.03-16.77,2.2-7.77,6.16-14.46,10.02-21.46-.82.92-1.65,1.77-2.32,2.79Z"/>
        </g>
      </g>
      <g>
        <g>
          <path d="M122.06,395.5c-11,42.25-22.01,84.48-33.03,126.68-.57,2.17-.6,4.26-.11,6.04.68,2.41,1.37,4.82,2.07,7.23-11.23,1.05-22.44,2.1-33.64,3.12.44-.58.89-1.16,1.33-1.74,2.4-3.14,3.78-6.78,3.79-10.02.23-21.02.69-42.27,1.37-63.75-6.09,20.94-12.17,41.87-18.26,62.8-.65,2.23-.77,4.38-.34,6.21.59,2.49,1.18,4.97,1.78,7.44-11.2,1-22.38,1.98-33.52,2.89,2.15-2.75,4.3-5.5,6.45-8.25,1.57-2.02,2.77-4.28,3.46-6.54,13.38-43.86,26.76-87.71,40.14-131.58.69-2.26.9-4.47.63-6.41-.37-2.63-.73-5.27-1.09-7.92,9.74,0,19.47,0,29.21,0-.45.62-.91,1.23-1.36,1.85-2.24,3.03-3.61,6.67-3.77,10.02-.95,21.78-1.68,43.34-2.18,64.66,5.76-20.85,11.51-41.7,17.26-62.55.61-2.2.74-4.36.4-6.26-.46-2.57-.92-5.15-1.37-7.73,9.74,0,19.47,0,29.21,0-1.82,2.53-3.65,5.07-5.48,7.61-1.36,1.88-2.37,4.01-2.93,6.19h0Z"/>
          <path d="M202.27,381.7c1.61,0,3.22,0,4.82,0-1.56,2.3-3.13,4.6-4.7,6.91-1.35,1.97-2.3,4.23-2.75,6.53-7.88,40.35-15.78,80.67-23.7,120.98-1.28,6.5-7.3,12.2-13.44,12.75-14.72,1.29-29.44,2.65-44.16,4.02-6.16.58-9.79-4.44-8.13-11.22,10.32-41.96,20.62-83.95,30.9-125.96.58-2.39.65-4.73.18-6.78-.54-2.4-1.07-4.8-1.59-7.21,9.74,0,19.47,0,29.21,0-1.65,2.36-3.31,4.72-4.97,7.09-1.43,2.03-2.47,4.35-3,6.7-8.09,35.43-16.19,70.85-24.31,106.25-.72,3.12.98,5.46,3.78,5.24,3.61-.28,7.22-.57,10.83-.84,2.8-.22,5.61-2.88,6.27-5.96,7.46-34.94,14.9-69.89,22.32-104.87.49-2.33.46-4.61-.08-6.6-.63-2.33-1.25-4.67-1.87-7.01,8.12,0,16.25,0,24.38,0h0Z"/>
          <path d="M271.46,401.81c-.23,1.78-.8,3.54-1.68,5.15-17.07,30.83-34.97,62.27-53.72,94.49,10.19-.67,20.38-1.3,30.56-1.88,2.01-.11,4.06-.79,5.93-1.96,2.33-1.46,4.66-2.91,6.98-4.35-1.24,9.48-2.49,18.96-3.73,28.44-21.97,1.37-43.98,3.01-66.02,4.83,1.28-6.93,2.56-13.86,3.84-20.79.34-1.84,1.05-3.68,2.09-5.39,19.33-32.64,37.8-64.45,55.41-95.6-9.31.12-18.62.25-27.93.38-1.84.03-3.75.63-5.53,1.76-2.22,1.41-4.45,2.82-6.69,4.24,1.79-9.81,3.58-19.62,5.37-29.44,19.24,0,38.48,0,57.73,0-.87,6.71-1.74,13.41-2.61,20.12Z"/>
          <path d="M329.97,381.7c6.05,0,10.59,5.58,10.13,12.46-2.47,37.18-4.95,74.35-7.43,111.52-.46,6.88-6.4,12.62-13.27,12.87-13.56.49-27.13,1.11-40.71,1.83-6.89.38-11.78-4.99-10.92-12.02,4.65-37.97,9.28-75.95,13.88-113.93.85-7.04,6.45-12.74,12.5-12.73,11.94,0,23.88,0,35.82,0ZM312,491.56c2.36-27.5,4.71-55,7.05-82.5.23-2.76-1.58-4.99-4.05-4.98-3.36.03-6.73.05-10.09.08-2.47.02-4.71,2.29-5,5.08-2.85,27.69-5.71,55.39-8.58,83.07-.29,2.79,1.66,4.95,4.36,4.84,3.67-.15,7.33-.29,11-.42,2.69-.1,5.07-2.42,5.31-5.18Z"/>
          <path d="M449.1,508.6c1.92,3.12,3.85,6.25,5.79,9.39-11.03-.31-22.06-.54-33.08-.68,1.78-3.04,3.56-6.09,5.32-9.13-.29-18.58-.58-37.15-.86-55.73-6.17,21.59-12.61,43.15-19.3,64.73-5.61-.03-11.23-.04-16.84-.02-6.3-21.59-12.33-43.16-18.1-64.74-.63,18.57-1.27,37.13-1.91,55.7,1.71,3.05,3.43,6.09,5.16,9.14-11.03.11-22.06.31-33.1.59,2-3.13,3.99-6.25,5.97-9.36,2.09-39.18,4.17-78.36,6.24-117.54-1.46-3.08-2.91-6.15-4.35-9.23,9.74,0,19.47,0,29.21,0-1.12,2.01-2.24,4.02-3.36,6.03,7.23,28.59,14.91,57.11,23.05,85.68,8.67-28.55,16.89-57.07,24.65-85.67-1.09-2.01-2.17-4.02-3.24-6.03,9.74,0,19.47,0,29.21,0-1.49,3.08-3,6.17-4.51,9.24,1.34,39.22,2.69,78.44,4.05,117.66Z"/>
          <path d="M521.3,381.7c1.01,9.49,2.02,18.97,3.04,28.46-2.18-1.4-4.36-2.8-6.53-4.19-1.57-1.01-3.3-1.55-5-1.57-9.36-.1-18.73-.19-28.09-.27.64,8.95,1.27,17.91,1.91,26.86,6.19.11,12.38.23,18.57.36,1.75.04,3.42-.44,4.84-1.4,1.95-1.32,3.89-2.64,5.83-3.96,1.11,11.31,2.22,22.62,3.33,33.93-2.27-1.44-4.53-2.88-6.79-4.31-1.63-1.03-3.43-1.61-5.22-1.66-6.32-.19-12.64-.36-18.96-.52,1.04,14.51,2.08,29.03,3.12,43.54,10.2.4,20.41.85,30.62,1.36,1.86.09,3.64-.33,5.14-1.25,2.07-1.26,4.13-2.51,6.19-3.77,1.03,9.48,2.05,18.96,3.08,28.44-23.72-1.49-47.41-2.66-71.07-3.45,1.22-2.21,2.44-4.43,3.65-6.64.87-1.61,1.28-3.46,1.18-5.36-1.98-37.47-3.96-74.94-5.91-112.41-.1-1.9-.65-3.78-1.59-5.41-1.3-2.26-2.59-4.52-3.87-6.78,20.85,0,41.7,0,62.55,0Z"/>
          <path d="M588.12,381.7c1.65,9.88,3.31,19.76,4.97,29.63-2.23-1.44-4.46-2.87-6.68-4.3-1.73-1.12-3.59-1.71-5.39-1.74-2.82-.04-5.63-.08-8.45-.13,5.41,35.85,10.85,71.69,16.3,107.51.32,2.11,1.18,4.23,2.48,6.12,1.67,2.43,3.35,4.87,5.03,7.32-11.13-.91-22.26-1.76-33.38-2.56,1.01-2.2,2.02-4.41,3.03-6.62.78-1.72,1.04-3.73.76-5.82-4.76-35.4-9.49-70.81-14.21-106.23-2.81-.04-5.63-.08-8.44-.11-1.8-.02-3.5.51-4.92,1.55-1.83,1.33-3.66,2.66-5.51,3.98-1.1-9.53-2.2-19.06-3.29-28.6,19.24,0,38.48,0,57.72,0Z"/>
          <path d="M700.57,535.48c-11.18-1.05-22.38-2.1-33.58-3.14.81-2.33,1.62-4.66,2.42-7,.61-1.79.68-3.88.21-6.07-3.87-18.03-7.73-36.06-11.58-54.1-.56-2.6-2.81-4.8-5.03-4.91-5.35-.28-10.7-.55-16.05-.82,3.83,19.35,7.67,38.7,11.51,58.04.43,2.16,1.38,4.32,2.76,6.26,1.81,2.55,3.63,5.1,5.46,7.66-11.18-1.03-22.35-2.04-33.52-3.01.9-2.27,1.8-4.55,2.69-6.83.68-1.74.83-3.78.44-5.91-7.3-40.2-14.58-80.43-21.83-120.68-.38-2.13-1.23-4.22-2.45-6.06-1.59-2.4-3.18-4.8-4.76-7.19,17.61,0,35.22,0,52.84,0,5.37,0,10.99,5.55,12.57,12.42,3.25,14.2,6.51,28.41,9.76,42.6,1.57,6.84-7.78,11.88-13.47,11.62,5.69.24,17.57,6.23,19.14,13.06,4.58,19.93,9.17,39.86,13.76,59.78.51,2.22,1.54,4.44,2.99,6.43,1.9,2.62,3.81,5.24,5.73,7.86ZM647.85,435.69c2.18.08,3.49-1.96,2.93-4.56-1.43-6.69-2.85-13.39-4.28-20.08-.55-2.6-2.71-4.74-4.83-4.77-5.09-.09-10.17-.17-15.26-.26,1.91,9.7,3.83,19.41,5.74,29.11,5.23.19,10.46.38,15.69.57Z"/>
          <path d="M720.65,381.7c6.05,0,12.83,6.56,15.14,14.67,12.48,43.78,24.96,87.57,37.45,131.35,2.31,8.11-1.42,14.22-8.35,13.62-13.66-1.17-27.36-2.41-41.09-3.68-6.95-.65-14.12-7.5-16.01-15.29-10.18-42.15-20.35-84.32-30.5-126.52-1.87-7.8,1.51-14.13,7.56-14.14,11.94,0,23.88,0,35.82,0ZM746.47,508.82c-8.62-31.81-17.23-63.63-25.84-95.46-.87-3.2-3.57-5.83-6.05-5.87-3.37-.05-6.74-.11-10.11-.16-2.48-.04-3.83,2.49-3.02,5.65,8.06,31.45,16.12,62.88,24.19,94.31.81,3.16,3.68,5.89,6.39,6.1,3.7.29,7.4.57,11.09.85,2.72.21,4.22-2.22,3.35-5.43Z"/>
        </g>
        <g>
          <path class="cls-3" d="M129.31,422.49c-8.95,35.91-17.91,71.81-26.88,107.68-.46,1.85-.42,3.62.12,5.13.74,2.05,1.49,4.1,2.24,6.14-10.68.89-21.34,1.78-31.98,2.65.4-.49.8-.99,1.2-1.48,2.17-2.67,3.34-5.76,3.22-8.52-.63-17.86-1.08-35.93-1.37-54.19-4.94,17.8-9.87,35.59-14.81,53.38-.53,1.9-.55,3.72-.06,5.28.66,2.11,1.33,4.22,2,6.33-10.65.85-21.27,1.68-31.85,2.46,1.93-2.34,3.86-4.68,5.78-7.01,1.41-1.72,2.45-3.64,3.01-5.56,10.83-37.28,21.66-74.56,32.5-111.84.56-1.92.66-3.8.29-5.45-.49-2.24-.98-4.48-1.46-6.73,9.49,0,18.98,0,28.46,0-.41.52-.83,1.05-1.24,1.57-2.04,2.57-3.21,5.67-3.21,8.52.07,18.51.32,36.84.74,54.96,4.68-17.72,9.35-35.44,14.02-53.17.49-1.87.53-3.71.11-5.32-.57-2.18-1.13-4.37-1.68-6.57,9.49,0,18.97,0,28.46,0-1.67,2.15-3.34,4.31-5.03,6.47-1.24,1.59-2.14,3.41-2.6,5.26h0Z"/>
          <path class="cls-3" d="M206.9,410.76c1.57,0,3.13,0,4.7,0-1.45,1.95-2.91,3.91-4.37,5.87-1.25,1.68-2.11,3.6-2.48,5.55-6.45,34.3-12.91,68.57-19.4,102.83-1.05,5.52-6.64,10.37-12.49,10.84-14.02,1.1-28.04,2.25-42.05,3.41-5.86.49-9.5-3.78-8.14-9.54,8.41-35.67,16.8-71.36,25.18-107.07.48-2.03.45-4.02-.08-5.77-.62-2.04-1.23-4.08-1.84-6.13,9.49,0,18.98,0,28.46,0-1.53,2-3.06,4.01-4.59,6.03-1.32,1.72-2.24,3.69-2.68,5.7-6.6,30.12-13.22,60.22-19.84,90.31-.58,2.65,1.11,4.64,3.8,4.45,3.45-.24,6.9-.48,10.35-.72,2.68-.19,5.29-2.45,5.82-5.06,6.09-29.7,12.18-59.41,18.24-89.14.4-1.98.3-3.92-.29-5.61-.69-1.98-1.37-3.97-2.05-5.96,7.92,0,15.84,0,23.76,0h0Z"/>
          <path class="cls-3" d="M274.73,427.85c-.19,1.51-.71,3.01-1.53,4.38-15.91,26.21-32.51,52.93-49.79,80.32,9.76-.57,19.51-1.1,29.25-1.6,1.93-.1,3.88-.67,5.65-1.67,2.21-1.24,4.41-2.47,6.62-3.7-1.02,8.06-2.04,16.11-3.07,24.17-20.97,1.16-41.98,2.56-63,4.1,1.05-5.89,2.1-11.78,3.14-17.67.28-1.56.91-3.13,1.86-4.58,17.75-27.74,34.8-54.79,51.16-81.26-9.04.1-18.08.21-27.12.33-1.79.02-3.62.54-5.32,1.5-2.12,1.2-4.25,2.4-6.38,3.6,1.47-8.34,2.93-16.68,4.4-25.02,18.75,0,37.5,0,56.26,0-.71,5.7-1.43,11.4-2.14,17.1Z"/>
          <path class="cls-3" d="M331.35,410.76c5.89,0,10.37,4.74,10,10.59-2.04,31.6-4.08,63.2-6.14,94.79-.38,5.84-6.01,10.73-12.58,10.94-12.96.42-25.93.94-38.91,1.56-6.58.32-11.35-4.24-10.64-10.22,3.82-32.27,7.63-64.55,11.42-96.84.7-5.98,6.05-10.82,11.94-10.82,11.63,0,23.27,0,34.9,0ZM315.24,504.14c1.94-23.37,3.88-46.75,5.81-70.12.19-2.35-1.59-4.24-4-4.23-3.27.02-6.53.05-9.8.07-2.4.02-4.54,1.95-4.78,4.32-2.35,23.54-4.7,47.08-7.07,70.61-.24,2.37,1.67,4.21,4.25,4.11,3.51-.13,7.03-.25,10.54-.36,2.58-.08,4.83-2.05,5.03-4.41Z"/>
          <path class="cls-3" d="M446.73,518.63c1.82,2.66,3.65,5.32,5.49,7.98-10.55-.27-21.1-.46-31.64-.58,1.71-2.59,3.42-5.18,5.12-7.76-.23-15.79-.46-31.58-.69-47.37-5.99,18.35-12.2,36.68-18.63,55.02-5.37-.03-10.74-.03-16.11-.02-6.08-18.35-11.94-36.68-17.59-55.03-.53,15.78-1.05,31.56-1.58,47.34,1.65,2.59,3.31,5.18,4.97,7.77-10.55.09-21.1.26-31.65.5,1.89-2.66,3.77-5.31,5.65-7.96,1.73-33.3,3.45-66.61,5.17-99.91-1.44-2.61-2.88-5.23-4.31-7.85,9.49,0,18.98,0,28.46,0-1.08,1.71-2.16,3.42-3.25,5.13,7.13,24.3,14.65,48.54,22.54,72.82,8.35-24.27,16.32-48.51,23.91-72.82-1.05-1.71-2.1-3.42-3.15-5.13,9.49,0,18.97,0,28.46,0-1.48,2.62-2.96,5.24-4.45,7.86,1.09,33.34,2.18,66.68,3.28,100.01Z"/>
          <path class="cls-3" d="M517.8,410.76c.83,8.06,1.65,16.13,2.48,24.19-2.1-1.19-4.19-2.38-6.27-3.56-1.51-.86-3.18-1.32-4.84-1.33-9.09-.08-18.19-.16-27.28-.23.52,7.61,1.04,15.22,1.56,22.83,5.99.09,11.97.2,17.96.31,1.69.03,3.32-.38,4.7-1.19,1.91-1.12,3.81-2.24,5.7-3.37.9,9.61,1.81,19.23,2.72,28.84-2.17-1.23-4.33-2.45-6.48-3.66-1.56-.88-3.29-1.37-5.01-1.41-6.09-.16-12.19-.31-18.28-.44.85,12.34,1.69,24.67,2.54,37.01,9.78.34,19.56.72,29.34,1.16,1.78.08,3.49-.28,4.94-1.06,2-1.07,4-2.14,5.99-3.21.84,8.06,1.68,16.12,2.51,24.18-22.66-1.27-45.3-2.26-67.92-2.93,1.18-1.88,2.36-3.76,3.54-5.65.85-1.36,1.25-2.94,1.17-4.56-1.61-31.85-3.22-63.7-4.81-95.55-.08-1.62-.6-3.21-1.5-4.6-1.24-1.92-2.48-3.84-3.72-5.76,20.32,0,40.64,0,60.96,0Z"/>
          <path class="cls-3" d="M582.92,410.76c1.35,8.4,2.69,16.79,4.04,25.19-2.13-1.22-4.25-2.44-6.37-3.66-1.65-.95-3.44-1.46-5.19-1.48-2.73-.04-5.47-.07-8.2-.11,4.41,30.47,8.84,60.94,13.28,91.39.26,1.8,1.04,3.59,2.24,5.2,1.55,2.07,3.1,4.14,4.65,6.22-10.62-.77-21.24-1.5-31.85-2.18,1.01-1.87,2.01-3.75,3.02-5.63.78-1.46,1.06-3.17.83-4.95-3.88-30.09-7.74-60.19-11.59-90.3-2.73-.03-5.47-.06-8.2-.09-1.75-.02-3.41.44-4.81,1.32-1.8,1.13-3.61,2.26-5.42,3.38-.9-8.1-1.79-16.2-2.69-24.31,18.75,0,37.5,0,56.25,0Z"/>
          <path class="cls-3" d="M686.61,541.47c-10.64-.89-21.29-1.79-31.95-2.67.85-1.98,1.69-3.96,2.53-5.95.64-1.52.77-3.3.39-5.16-3.14-15.33-6.27-30.66-9.4-45.99-.45-2.21-2.55-4.08-4.69-4.17-5.15-.24-10.3-.47-15.45-.7,3.11,16.45,6.23,32.89,9.36,49.34.35,1.83,1.2,3.67,2.46,5.32,1.66,2.17,3.32,4.34,4.99,6.51-10.64-.87-21.29-1.73-31.94-2.56.92-1.93,1.83-3.87,2.74-5.81.69-1.48.89-3.22.57-5.03-5.94-34.17-11.86-68.37-17.76-102.58-.31-1.81-1.07-3.59-2.21-5.15-1.48-2.04-2.96-4.08-4.43-6.11,17.16,0,34.33,0,51.49,0,5.23,0,10.5,4.72,11.78,10.56,2.64,12.07,5.28,24.14,7.92,36.21,1.27,5.81-7.93,10.1-13.41,9.88,5.48.2,16.74,5.29,18.01,11.1,3.72,16.94,7.43,33.88,11.15,50.81.41,1.88,1.33,3.77,2.65,5.47,1.73,2.22,3.47,4.45,5.21,6.68ZM639.29,456.65c2.1.07,3.44-1.67,2.99-3.88-1.16-5.69-2.32-11.38-3.47-17.07-.45-2.21-2.47-4.03-4.53-4.06-4.94-.07-9.87-.15-14.81-.22,1.55,8.25,3.11,16.49,4.67,24.74,5.05.16,10.1.32,15.15.48Z"/>
          <path class="cls-3" d="M712.07,410.76c5.9,0,12.19,5.58,14.05,12.47,10.06,37.22,20.11,74.43,30.17,111.65,1.86,6.9-1.95,12.09-8.54,11.57-12.98-1-26.01-2.05-39.06-3.13-6.61-.56-13.21-6.38-14.74-13-8.25-35.83-16.48-71.68-24.7-107.54-1.52-6.63,2.03-12.01,7.92-12.02,11.63,0,23.27,0,34.9,0ZM731.47,518.81c-6.96-27.04-13.91-54.09-20.86-81.14-.7-2.72-3.21-4.96-5.62-4.99-3.27-.05-6.54-.09-9.81-.14-2.4-.03-3.82,2.12-3.17,4.81,6.52,26.73,13.03,53.45,19.56,80.16.66,2.68,3.3,5.01,5.89,5.19,3.53.24,7.06.48,10.58.72,2.59.18,4.12-1.89,3.42-4.61Z"/>
        </g>
        <g>
          <path class="cls-2" d="M122.06,395.5c-11,42.25-22.01,84.48-33.03,126.68-.57,2.17-.6,4.26-.11,6.04.68,2.41,1.37,4.82,2.07,7.23-11.23,1.05-22.44,2.1-33.64,3.12.44-.58.89-1.16,1.33-1.74,2.4-3.14,3.78-6.78,3.79-10.02.23-21.02.69-42.27,1.37-63.75-6.09,20.94-12.17,41.87-18.26,62.8-.65,2.23-.77,4.38-.34,6.21.59,2.49,1.18,4.97,1.78,7.44-11.2,1-22.38,1.98-33.52,2.89,2.15-2.75,4.3-5.5,6.45-8.25,1.57-2.02,2.77-4.28,3.46-6.54,13.38-43.86,26.76-87.71,40.14-131.58.69-2.26.9-4.47.63-6.41-.37-2.63-.73-5.27-1.09-7.92,9.74,0,19.47,0,29.21,0-.45.62-.91,1.23-1.36,1.85-2.24,3.03-3.61,6.67-3.77,10.02-.95,21.78-1.68,43.34-2.18,64.66,5.76-20.85,11.51-41.7,17.26-62.55.61-2.2.74-4.36.4-6.26-.46-2.57-.92-5.15-1.37-7.73,9.74,0,19.47,0,29.21,0-1.82,2.53-3.65,5.07-5.48,7.61-1.36,1.88-2.37,4.01-2.93,6.19h0Z"/>
          <path class="cls-2" d="M202.27,381.7c1.61,0,3.22,0,4.82,0-1.56,2.3-3.13,4.6-4.7,6.91-1.35,1.97-2.3,4.23-2.75,6.53-7.88,40.35-15.78,80.67-23.7,120.98-1.28,6.5-7.3,12.2-13.44,12.75-14.72,1.29-29.44,2.65-44.16,4.02-6.16.58-9.79-4.44-8.13-11.22,10.32-41.96,20.62-83.95,30.9-125.96.58-2.39.65-4.73.18-6.78-.54-2.4-1.07-4.8-1.59-7.21,9.74,0,19.47,0,29.21,0-1.65,2.36-3.31,4.72-4.97,7.09-1.43,2.03-2.47,4.35-3,6.7-8.09,35.43-16.19,70.85-24.31,106.25-.72,3.12.98,5.46,3.78,5.24,3.61-.28,7.22-.57,10.83-.84,2.8-.22,5.61-2.88,6.27-5.96,7.46-34.94,14.9-69.89,22.32-104.87.49-2.33.46-4.61-.08-6.6-.63-2.33-1.25-4.67-1.87-7.01,8.12,0,16.25,0,24.38,0h0Z"/>
          <path class="cls-2" d="M271.46,401.81c-.23,1.78-.8,3.54-1.68,5.15-17.07,30.83-34.97,62.27-53.72,94.49,10.19-.67,20.38-1.3,30.56-1.88,2.01-.11,4.06-.79,5.93-1.96,2.33-1.46,4.66-2.91,6.98-4.35-1.24,9.48-2.49,18.96-3.73,28.44-21.97,1.37-43.98,3.01-66.02,4.83,1.28-6.93,2.56-13.86,3.84-20.79.34-1.84,1.05-3.68,2.09-5.39,19.33-32.64,37.8-64.45,55.41-95.6-9.31.12-18.62.25-27.93.38-1.84.03-3.75.63-5.53,1.76-2.22,1.41-4.45,2.82-6.69,4.24,1.79-9.81,3.58-19.62,5.37-29.44,19.24,0,38.48,0,57.73,0-.87,6.71-1.74,13.41-2.61,20.12Z"/>
          <path class="cls-2" d="M329.97,381.7c6.05,0,10.59,5.58,10.13,12.46-2.47,37.18-4.95,74.35-7.43,111.52-.46,6.88-6.4,12.62-13.27,12.87-13.56.49-27.13,1.11-40.71,1.83-6.89.38-11.78-4.99-10.92-12.02,4.65-37.97,9.28-75.95,13.88-113.93.85-7.04,6.45-12.74,12.5-12.73,11.94,0,23.88,0,35.82,0ZM312,491.56c2.36-27.5,4.71-55,7.05-82.5.23-2.76-1.58-4.99-4.05-4.98-3.36.03-6.73.05-10.09.08-2.47.02-4.71,2.29-5,5.08-2.85,27.69-5.71,55.39-8.58,83.07-.29,2.79,1.66,4.95,4.36,4.84,3.67-.15,7.33-.29,11-.42,2.69-.1,5.07-2.42,5.31-5.18Z"/>
          <path class="cls-2" d="M449.1,508.6c1.92,3.12,3.85,6.25,5.79,9.39-11.03-.31-22.06-.54-33.08-.68,1.78-3.04,3.56-6.09,5.32-9.13-.29-18.58-.58-37.15-.86-55.73-6.17,21.59-12.61,43.15-19.3,64.73-5.61-.03-11.23-.04-16.84-.02-6.3-21.59-12.33-43.16-18.1-64.74-.63,18.57-1.27,37.13-1.91,55.7,1.71,3.05,3.43,6.09,5.16,9.14-11.03.11-22.06.31-33.1.59,2-3.13,3.99-6.25,5.97-9.36,2.09-39.18,4.17-78.36,6.24-117.54-1.46-3.08-2.91-6.15-4.35-9.23,9.74,0,19.47,0,29.21,0-1.12,2.01-2.24,4.02-3.36,6.03,7.23,28.59,14.91,57.11,23.05,85.68,8.67-28.55,16.89-57.07,24.65-85.67-1.09-2.01-2.17-4.02-3.24-6.03,9.74,0,19.47,0,29.21,0-1.49,3.08-3,6.17-4.51,9.24,1.34,39.22,2.69,78.44,4.05,117.66Z"/>
          <path class="cls-2" d="M521.3,381.7c1.01,9.49,2.02,18.97,3.04,28.46-2.18-1.4-4.36-2.8-6.53-4.19-1.57-1.01-3.3-1.55-5-1.57-9.36-.1-18.73-.19-28.09-.27.64,8.95,1.27,17.91,1.91,26.86,6.19.11,12.38.23,18.57.36,1.75.04,3.42-.44,4.84-1.4,1.95-1.32,3.89-2.64,5.83-3.96,1.11,11.31,2.22,22.62,3.33,33.93-2.27-1.44-4.53-2.88-6.79-4.31-1.63-1.03-3.43-1.61-5.22-1.66-6.32-.19-12.64-.36-18.96-.52,1.04,14.51,2.08,29.03,3.12,43.54,10.2.4,20.41.85,30.62,1.36,1.86.09,3.64-.33,5.14-1.25,2.07-1.26,4.13-2.51,6.19-3.77,1.03,9.48,2.05,18.96,3.08,28.44-23.72-1.49-47.41-2.66-71.07-3.45,1.22-2.21,2.44-4.43,3.65-6.64.87-1.61,1.28-3.46,1.18-5.36-1.98-37.47-3.96-74.94-5.91-112.41-.1-1.9-.65-3.78-1.59-5.41-1.3-2.26-2.59-4.52-3.87-6.78,20.85,0,41.7,0,62.55,0Z"/>
          <path class="cls-2" d="M588.12,381.7c1.65,9.88,3.31,19.76,4.97,29.63-2.23-1.44-4.46-2.87-6.68-4.3-1.73-1.12-3.59-1.71-5.39-1.74-2.82-.04-5.63-.08-8.45-.13,5.41,35.85,10.85,71.69,16.3,107.51.32,2.11,1.18,4.23,2.48,6.12,1.67,2.43,3.35,4.87,5.03,7.32-11.13-.91-22.26-1.76-33.38-2.56,1.01-2.2,2.02-4.41,3.03-6.62.78-1.72,1.04-3.73.76-5.82-4.76-35.4-9.49-70.81-14.21-106.23-2.81-.04-5.63-.08-8.44-.11-1.8-.02-3.5.51-4.92,1.55-1.83,1.33-3.66,2.66-5.51,3.98-1.1-9.53-2.2-19.06-3.29-28.6,19.24,0,38.48,0,57.72,0Z"/>
          <path class="cls-2" d="M700.57,535.48c-11.18-1.05-22.38-2.1-33.58-3.14.81-2.33,1.62-4.66,2.42-7,.61-1.79.68-3.88.21-6.07-3.87-18.03-7.73-36.06-11.58-54.1-.56-2.6-2.81-4.8-5.03-4.91-5.35-.28-10.7-.55-16.05-.82,3.83,19.35,7.67,38.7,11.51,58.04.43,2.16,1.38,4.32,2.76,6.26,1.81,2.55,3.63,5.1,5.46,7.66-11.18-1.03-22.35-2.04-33.52-3.01.9-2.27,1.8-4.55,2.69-6.83.68-1.74.83-3.78.44-5.91-7.3-40.2-14.58-80.43-21.83-120.68-.38-2.13-1.23-4.22-2.45-6.06-1.59-2.4-3.18-4.8-4.76-7.19,17.61,0,35.22,0,52.84,0,5.37,0,10.99,5.55,12.57,12.42,3.25,14.2,6.51,28.41,9.76,42.6,1.57,6.84-7.78,11.88-13.47,11.62,5.69.24,17.57,6.23,19.14,13.06,4.58,19.93,9.17,39.86,13.76,59.78.51,2.22,1.54,4.44,2.99,6.43,1.9,2.62,3.81,5.24,5.73,7.86ZM647.85,435.69c2.18.08,3.49-1.96,2.93-4.56-1.43-6.69-2.85-13.39-4.28-20.08-.55-2.6-2.71-4.74-4.83-4.77-5.09-.09-10.17-.17-15.26-.26,1.91,9.7,3.83,19.41,5.74,29.11,5.23.19,10.46.38,15.69.57Z"/>
          <path class="cls-2" d="M720.65,381.7c6.05,0,12.83,6.56,15.14,14.67,12.48,43.78,24.96,87.57,37.45,131.35,2.31,8.11-1.42,14.22-8.35,13.62-13.66-1.17-27.36-2.41-41.09-3.68-6.95-.65-14.12-7.5-16.01-15.29-10.18-42.15-20.35-84.32-30.5-126.52-1.87-7.8,1.51-14.13,7.56-14.14,11.94,0,23.88,0,35.82,0ZM746.47,508.82c-8.62-31.81-17.23-63.63-25.84-95.46-.87-3.2-3.57-5.83-6.05-5.87-3.37-.05-6.74-.11-10.11-.16-2.48-.04-3.83,2.49-3.02,5.65,8.06,31.45,16.12,62.88,24.19,94.31.81,3.16,3.68,5.89,6.39,6.1,3.7.29,7.4.57,11.09.85,2.72.21,4.22-2.22,3.35-5.43Z"/>
        </g>
        <g>
          <path class="cls-5" d="M122.06,395.5c-11,42.25-22.01,84.48-33.03,126.68-.57,2.17-.6,4.26-.11,6.04.68,2.41,1.37,4.82,2.07,7.23-11.23,1.05-22.44,2.1-33.64,3.12.44-.58.89-1.16,1.33-1.74,2.4-3.14,3.78-6.78,3.79-10.02.23-21.02.69-42.27,1.37-63.75-6.09,20.94-12.17,41.87-18.26,62.8-.65,2.23-.77,4.38-.34,6.21.59,2.49,1.18,4.97,1.78,7.44-11.2,1-22.38,1.98-33.52,2.89,2.15-2.75,4.3-5.5,6.45-8.25,1.57-2.02,2.77-4.28,3.46-6.54,13.38-43.86,26.76-87.71,40.14-131.58.69-2.26.9-4.47.63-6.41-.37-2.63-.73-5.27-1.09-7.92,9.74,0,19.47,0,29.21,0-.45.62-.91,1.23-1.36,1.85-2.24,3.03-3.61,6.67-3.77,10.02-.95,21.78-1.68,43.34-2.18,64.66,5.76-20.85,11.51-41.7,17.26-62.55.61-2.2.74-4.36.4-6.26-.46-2.57-.92-5.15-1.37-7.73,9.74,0,19.47,0,29.21,0-1.82,2.53-3.65,5.07-5.48,7.61-1.36,1.88-2.37,4.01-2.93,6.19h0Z"/>
          <path class="cls-5" d="M202.27,381.7c1.61,0,3.22,0,4.82,0-1.56,2.3-3.13,4.6-4.7,6.91-1.35,1.97-2.3,4.23-2.75,6.53-7.88,40.35-15.78,80.67-23.7,120.98-1.28,6.5-7.3,12.2-13.44,12.75-14.72,1.29-29.44,2.65-44.16,4.02-6.16.58-9.79-4.44-8.13-11.22,10.32-41.96,20.62-83.95,30.9-125.96.58-2.39.65-4.73.18-6.78-.54-2.4-1.07-4.8-1.59-7.21,9.74,0,19.47,0,29.21,0-1.65,2.36-3.31,4.72-4.97,7.09-1.43,2.03-2.47,4.35-3,6.7-8.09,35.43-16.19,70.85-24.31,106.25-.72,3.12.98,5.46,3.78,5.24,3.61-.28,7.22-.57,10.83-.84,2.8-.22,5.61-2.88,6.27-5.96,7.46-34.94,14.9-69.89,22.32-104.87.49-2.33.46-4.61-.08-6.6-.63-2.33-1.25-4.67-1.87-7.01,8.12,0,16.25,0,24.38,0h0Z"/>
          <path class="cls-5" d="M271.46,401.81c-.23,1.78-.8,3.54-1.68,5.15-17.07,30.83-34.97,62.27-53.72,94.49,10.19-.67,20.38-1.3,30.56-1.88,2.01-.11,4.06-.79,5.93-1.96,2.33-1.46,4.66-2.91,6.98-4.35-1.24,9.48-2.49,18.96-3.73,28.44-21.97,1.37-43.98,3.01-66.02,4.83,1.28-6.93,2.56-13.86,3.84-20.79.34-1.84,1.05-3.68,2.09-5.39,19.33-32.64,37.8-64.45,55.41-95.6-9.31.12-18.62.25-27.93.38-1.84.03-3.75.63-5.53,1.76-2.22,1.41-4.45,2.82-6.69,4.24,1.79-9.81,3.58-19.62,5.37-29.44,19.24,0,38.48,0,57.73,0-.87,6.71-1.74,13.41-2.61,20.12Z"/>
          <path class="cls-5" d="M329.97,381.7c6.05,0,10.59,5.58,10.13,12.46-2.47,37.18-4.95,74.35-7.43,111.52-.46,6.88-6.4,12.62-13.27,12.87-13.56.49-27.13,1.11-40.71,1.83-6.89.38-11.78-4.99-10.92-12.02,4.65-37.97,9.28-75.95,13.88-113.93.85-7.04,6.45-12.74,12.5-12.73,11.94,0,23.88,0,35.82,0ZM312,491.56c2.36-27.5,4.71-55,7.05-82.5.23-2.76-1.58-4.99-4.05-4.98-3.36.03-6.73.05-10.09.08-2.47.02-4.71,2.29-5,5.08-2.85,27.69-5.71,55.39-8.58,83.07-.29,2.79,1.66,4.95,4.36,4.84,3.67-.15,7.33-.29,11-.42,2.69-.1,5.07-2.42,5.31-5.18Z"/>
          <path class="cls-5" d="M449.1,508.6c1.92,3.12,3.85,6.25,5.79,9.39-11.03-.31-22.06-.54-33.08-.68,1.78-3.04,3.56-6.09,5.32-9.13-.29-18.58-.58-37.15-.86-55.73-6.17,21.59-12.61,43.15-19.3,64.73-5.61-.03-11.23-.04-16.84-.02-6.3-21.59-12.33-43.16-18.1-64.74-.63,18.57-1.27,37.13-1.91,55.7,1.71,3.05,3.43,6.09,5.16,9.14-11.03.11-22.06.31-33.1.59,2-3.13,3.99-6.25,5.97-9.36,2.09-39.18,4.17-78.36,6.24-117.54-1.46-3.08-2.91-6.15-4.35-9.23,9.74,0,19.47,0,29.21,0-1.12,2.01-2.24,4.02-3.36,6.03,7.23,28.59,14.91,57.11,23.05,85.68,8.67-28.55,16.89-57.07,24.65-85.67-1.09-2.01-2.17-4.02-3.24-6.03,9.74,0,19.47,0,29.21,0-1.49,3.08-3,6.17-4.51,9.24,1.34,39.22,2.69,78.44,4.05,117.66Z"/>
          <path class="cls-5" d="M521.3,381.7c1.01,9.49,2.02,18.97,3.04,28.46-2.18-1.4-4.36-2.8-6.53-4.19-1.57-1.01-3.3-1.55-5-1.57-9.36-.1-18.73-.19-28.09-.27.64,8.95,1.27,17.91,1.91,26.86,6.19.11,12.38.23,18.57.36,1.75.04,3.42-.44,4.84-1.4,1.95-1.32,3.89-2.64,5.83-3.96,1.11,11.31,2.22,22.62,3.33,33.93-2.27-1.44-4.53-2.88-6.79-4.31-1.63-1.03-3.43-1.61-5.22-1.66-6.32-.19-12.64-.36-18.96-.52,1.04,14.51,2.08,29.03,3.12,43.54,10.2.4,20.41.85,30.62,1.36,1.86.09,3.64-.33,5.14-1.25,2.07-1.26,4.13-2.51,6.19-3.77,1.03,9.48,2.05,18.96,3.08,28.44-23.72-1.49-47.41-2.66-71.07-3.45,1.22-2.21,2.44-4.43,3.65-6.64.87-1.61,1.28-3.46,1.18-5.36-1.98-37.47-3.96-74.94-5.91-112.41-.1-1.9-.65-3.78-1.59-5.41-1.3-2.26-2.59-4.52-3.87-6.78,20.85,0,41.7,0,62.55,0Z"/>
          <path class="cls-5" d="M588.12,381.7c1.65,9.88,3.31,19.76,4.97,29.63-2.23-1.44-4.46-2.87-6.68-4.3-1.73-1.12-3.59-1.71-5.39-1.74-2.82-.04-5.63-.08-8.45-.13,5.41,35.85,10.85,71.69,16.3,107.51.32,2.11,1.18,4.23,2.48,6.12,1.67,2.43,3.35,4.87,5.03,7.32-11.13-.91-22.26-1.76-33.38-2.56,1.01-2.2,2.02-4.41,3.03-6.62.78-1.72,1.04-3.73.76-5.82-4.76-35.4-9.49-70.81-14.21-106.23-2.81-.04-5.63-.08-8.44-.11-1.8-.02-3.5.51-4.92,1.55-1.83,1.33-3.66,2.66-5.51,3.98-1.1-9.53-2.2-19.06-3.29-28.6,19.24,0,38.48,0,57.72,0Z"/>
          <path class="cls-5" d="M700.57,535.48c-11.18-1.05-22.38-2.1-33.58-3.14.81-2.33,1.62-4.66,2.42-7,.61-1.79.68-3.88.21-6.07-3.87-18.03-7.73-36.06-11.58-54.1-.56-2.6-2.81-4.8-5.03-4.91-5.35-.28-10.7-.55-16.05-.82,3.83,19.35,7.67,38.7,11.51,58.04.43,2.16,1.38,4.32,2.76,6.26,1.81,2.55,3.63,5.1,5.46,7.66-11.18-1.03-22.35-2.04-33.52-3.01.9-2.27,1.8-4.55,2.69-6.83.68-1.74.83-3.78.44-5.91-7.3-40.2-14.58-80.43-21.83-120.68-.38-2.13-1.23-4.22-2.45-6.06-1.59-2.4-3.18-4.8-4.76-7.19,17.61,0,35.22,0,52.84,0,5.37,0,10.99,5.55,12.57,12.42,3.25,14.2,6.51,28.41,9.76,42.6,1.57,6.84-7.78,11.88-13.47,11.62,5.69.24,17.57,6.23,19.14,13.06,4.58,19.93,9.17,39.86,13.76,59.78.51,2.22,1.54,4.44,2.99,6.43,1.9,2.62,3.81,5.24,5.73,7.86ZM647.85,435.69c2.18.08,3.49-1.96,2.93-4.56-1.43-6.69-2.85-13.39-4.28-20.08-.55-2.6-2.71-4.74-4.83-4.77-5.09-.09-10.17-.17-15.26-.26,1.91,9.7,3.83,19.41,5.74,29.11,5.23.19,10.46.38,15.69.57Z"/>
          <path class="cls-5" d="M720.65,381.7c6.05,0,12.83,6.56,15.14,14.67,12.48,43.78,24.96,87.57,37.45,131.35,2.31,8.11-1.42,14.22-8.35,13.62-13.66-1.17-27.36-2.41-41.09-3.68-6.95-.65-14.12-7.5-16.01-15.29-10.18-42.15-20.35-84.32-30.5-126.52-1.87-7.8,1.51-14.13,7.56-14.14,11.94,0,23.88,0,35.82,0ZM746.47,508.82c-8.62-31.81-17.23-63.63-25.84-95.46-.87-3.2-3.57-5.83-6.05-5.87-3.37-.05-6.74-.11-10.11-.16-2.48-.04-3.83,2.49-3.02,5.65,8.06,31.45,16.12,62.88,24.19,94.31.81,3.16,3.68,5.89,6.39,6.1,3.7.29,7.4.57,11.09.85,2.72.21,4.22-2.22,3.35-5.43Z"/>
        </g>
      </g>
    </g>
  </g>
</svg>